<svg width="32" height="32" viewBox="0 0 32 32" fill="none" xmlns="http://www.w3.org/2000/svg">
<path d="M11 17.6667L16 12.6667L21 17.6667M31 27.6667C31 28.5507 30.6488 29.3986 30.0237 30.0237C29.3986 30.6488 28.5507 31 27.6667 31L4.33333 31C3.44928 31 2.60143 30.6488 1.97631 30.0237C1.35119 29.3986 1 28.5507 1 27.6667L1 4.33333C1 3.44928 1.35119 2.60143 1.97631 1.97631C2.60144 1.35119 3.44928 0.999998 4.33334 0.999998L27.6667 1C28.5507 1 29.3986 1.35119 30.0237 1.97631C30.6488 2.60143 31 3.44928 31 4.33333L31 27.6667Z" stroke="white" stroke-width="2" stroke-linecap="round" stroke-linejoin="round"/>
</svg>
