<svg width="259" height="127" viewBox="0 0 259 127" fill="none" xmlns="http://www.w3.org/2000/svg">
<g clip-path="url(#clip0_2002_127)">
<circle cx="19" cy="28.7891" r="19" fill="#383838"/>
<g clip-path="url(#clip1_2002_127)">
<path d="M14.6596 35.8225L14.966 35.9757C16.2155 36.7189 17.644 37.1074 19.0977 37.0993C23.5732 37.0891 27.2504 33.4032 27.2504 28.9277C27.2504 26.7648 26.3914 24.6877 24.8638 23.1566C23.3383 21.6096 21.254 20.7378 19.0819 20.7378C14.6269 20.7378 10.9614 24.4038 10.9614 28.8583C10.9614 28.8935 10.9614 28.9283 10.9619 28.9635C10.9754 30.478 11.3989 31.9606 12.1877 33.2536L12.392 33.56L11.5748 36.5733L14.6596 35.8225Z" fill="#00E676"/>
<path d="M25.773 22.2366C24.034 20.4623 21.6483 19.4669 19.1642 19.4786H19.1484C14.0325 19.4786 9.82259 23.6885 9.82259 28.8044C9.82259 28.8284 9.8231 28.8519 9.8231 28.876C9.84237 30.5025 10.2634 32.099 11.0488 33.5235L9.72095 38.3754L14.6699 37.0986C16.037 37.8492 17.574 38.236 19.1336 38.2222C24.2684 38.1941 28.4778 33.9602 28.4747 28.8249C28.4869 26.3576 27.514 23.9848 25.773 22.2366ZM19.1642 36.6389C17.7818 36.6461 16.4237 36.2753 15.2368 35.5664L14.9303 35.4132L11.9834 36.1793L12.7495 33.2682L12.5452 32.9617C11.7864 31.7365 11.3844 30.3238 11.3844 28.8826C11.3844 24.6324 14.8818 21.1349 19.132 21.1349C23.3823 21.1349 26.8797 24.6324 26.8797 28.8826C26.8797 31.5588 25.4931 34.0521 23.2193 35.4643C22.0168 36.2346 20.6179 36.6424 19.1898 36.6389M23.679 30.9699L23.1172 30.7146C23.1172 30.7146 22.3 30.357 21.7893 30.1017C21.7383 30.1017 21.6872 30.0506 21.6361 30.0506C21.5102 30.0537 21.3871 30.0889 21.2786 30.1528C21.1698 30.2166 21.2275 30.2038 20.5125 31.021C20.464 31.1165 20.3644 31.1762 20.2572 31.1742H20.2061C20.1293 31.1613 20.0581 31.1258 20.0018 31.0721L19.7464 30.9699C19.1985 30.7379 18.6968 30.4092 18.2653 29.9995C18.1632 29.8974 18.01 29.7952 17.9078 29.6931C17.5297 29.3309 17.2032 28.9185 16.9375 28.4674L16.8864 28.3652C16.842 28.3028 16.8076 28.2339 16.7842 28.1609C16.7709 28.0725 16.789 27.9821 16.8353 27.9056C16.8818 27.829 17.0396 27.6502 17.1928 27.497C17.346 27.3438 17.346 27.2416 17.4482 27.1395C17.5007 27.0666 17.537 26.9833 17.5546 26.8952C17.5722 26.8071 17.5707 26.7162 17.5503 26.6288C17.3123 25.9679 17.0395 25.3201 16.7332 24.688C16.651 24.5603 16.5231 24.4689 16.3757 24.4327H15.8139C15.7117 24.4327 15.6096 24.4837 15.5074 24.4837L15.4564 24.5348C15.3542 24.5859 15.2521 24.688 15.1499 24.7391C15.0478 24.7902 14.9967 24.9434 14.8946 25.0455C14.5375 25.4967 14.34 26.0534 14.3328 26.6288C14.3384 27.0335 14.4253 27.4329 14.5881 27.8034L14.6392 27.9566C15.0978 28.9371 15.7391 29.8211 16.5289 30.5613L16.7332 30.7656C16.8818 30.8887 17.0186 31.0255 17.1417 31.1742C18.2 32.095 19.4568 32.759 20.8138 33.115C20.9671 33.166 21.1714 33.166 21.3246 33.2171H21.8353C22.1022 33.2039 22.3633 33.1343 22.6014 33.0128C22.7265 32.9561 22.846 32.8877 22.9589 32.8085L23.061 32.7064C23.1632 32.6042 23.2653 32.5531 23.3675 32.451C23.4673 32.3621 23.5533 32.2588 23.6228 32.1446C23.7209 31.9158 23.7898 31.6757 23.8271 31.4296V31.0721C23.7812 31.0308 23.7296 30.9964 23.6739 30.9699" fill="white"/>
</g>
</g>
<g clip-path="url(#clip2_2002_127)">
<circle cx="233.027" cy="25.5" r="25.5" fill="#383838"/>
<g clip-path="url(#clip3_2002_127)">
<path d="M228.877 26.0939C228.877 23.4738 231.001 21.3493 233.621 21.3493C236.241 21.3493 238.365 23.4738 238.365 26.0939C238.365 28.7139 236.241 30.8385 233.621 30.8385C231.001 30.8385 228.877 28.7139 228.877 26.0939ZM226.312 26.0939C226.312 30.1302 229.584 33.4021 233.621 33.4021C237.657 33.4021 240.929 30.1302 240.929 26.0939C240.929 22.0575 237.657 18.7856 233.621 18.7856C229.584 18.7856 226.312 22.0575 226.312 26.0939ZM239.51 18.4959C239.51 18.8337 239.61 19.1639 239.798 19.4448C239.985 19.7258 240.252 19.9448 240.564 20.0742C240.876 20.2036 241.22 20.2375 241.551 20.1718C241.882 20.106 242.187 19.9435 242.425 19.7047C242.664 19.4659 242.827 19.1617 242.893 18.8304C242.959 18.4991 242.926 18.1557 242.796 17.8436C242.667 17.5315 242.449 17.2646 242.168 17.0769C241.887 16.8891 241.557 16.7888 241.219 16.7886H241.218C240.766 16.7889 240.331 16.9688 240.011 17.2889C239.691 17.609 239.511 18.0431 239.51 18.4959ZM227.871 37.6788C226.483 37.6157 225.729 37.3845 225.228 37.1892C224.563 36.9306 224.089 36.6224 223.591 36.1247C223.092 35.6269 222.784 35.1532 222.526 34.4887C222.331 33.9877 222.1 33.2333 222.036 31.8457C221.967 30.3454 221.954 29.8948 221.954 26.094C221.954 22.2932 221.969 21.8438 222.036 20.3423C222.1 18.9547 222.333 18.2018 222.526 17.6993C222.785 17.0348 223.093 16.5607 223.591 16.0622C224.088 15.5637 224.562 15.2552 225.228 14.9976C225.729 14.8022 226.483 14.5711 227.871 14.508C229.371 14.439 229.822 14.4252 233.621 14.4252C237.42 14.4252 237.871 14.4402 239.372 14.508C240.76 14.5712 241.513 14.8041 242.015 14.9976C242.68 15.2552 243.154 15.5644 243.653 16.0622C244.151 16.56 244.458 17.0348 244.717 17.6993C244.913 18.2003 245.144 18.9547 245.207 20.3423C245.276 21.8438 245.29 22.2932 245.29 26.094C245.29 29.8948 245.276 30.3442 245.207 31.8457C245.144 33.2333 244.911 33.9875 244.717 34.4887C244.458 35.1532 244.15 35.6273 243.653 36.1247C243.155 36.622 242.68 36.9306 242.015 37.1892C241.514 37.3846 240.76 37.6158 239.372 37.6788C237.872 37.7478 237.422 37.7616 233.621 37.7616C229.82 37.7616 229.371 37.7478 227.871 37.6788ZM227.753 11.9475C226.238 12.0165 225.202 12.2568 224.298 12.6086C223.362 12.9719 222.569 13.4594 221.777 14.2502C220.985 15.0411 220.499 15.8351 220.135 16.7714C219.784 17.6762 219.543 18.7109 219.474 20.2261C219.404 21.7436 219.388 22.2288 219.388 26.0939C219.388 29.959 219.404 30.4442 219.474 31.9617C219.543 33.4769 219.784 34.5116 220.135 35.4163C220.499 36.3521 220.985 37.147 221.777 37.9375C222.569 38.7281 223.362 39.2148 224.298 39.5792C225.204 39.931 226.238 40.1713 227.753 40.2402C229.271 40.3092 229.756 40.3264 233.621 40.3264C237.486 40.3264 237.971 40.3104 239.489 40.2402C241.004 40.1713 242.038 39.931 242.943 39.5792C243.879 39.2148 244.672 38.7284 245.464 37.9375C246.257 37.1467 246.742 36.3521 247.106 35.4163C247.458 34.5116 247.699 33.4768 247.767 31.9617C247.836 30.443 247.852 29.959 247.852 26.0939C247.852 22.2288 247.836 21.7436 247.767 20.2261C247.698 18.7108 247.458 17.6756 247.106 16.7714C246.742 15.8356 246.255 15.0424 245.464 14.2502C244.674 13.4581 243.879 12.9719 242.944 12.6086C242.038 12.2568 241.004 12.0154 239.49 11.9475C237.972 11.8785 237.487 11.8613 233.622 11.8613C229.757 11.8613 229.271 11.8774 227.753 11.9475Z" fill="url(#paint0_radial_2002_127)"/>
<path d="M228.877 26.0939C228.877 23.4738 231.001 21.3493 233.621 21.3493C236.241 21.3493 238.365 23.4738 238.365 26.0939C238.365 28.7139 236.241 30.8385 233.621 30.8385C231.001 30.8385 228.877 28.7139 228.877 26.0939ZM226.312 26.0939C226.312 30.1302 229.584 33.4021 233.621 33.4021C237.657 33.4021 240.929 30.1302 240.929 26.0939C240.929 22.0575 237.657 18.7856 233.621 18.7856C229.584 18.7856 226.312 22.0575 226.312 26.0939ZM239.51 18.4959C239.51 18.8337 239.61 19.1639 239.798 19.4448C239.985 19.7258 240.252 19.9448 240.564 20.0742C240.876 20.2036 241.22 20.2375 241.551 20.1718C241.882 20.106 242.187 19.9435 242.425 19.7047C242.664 19.4659 242.827 19.1617 242.893 18.8304C242.959 18.4991 242.926 18.1557 242.796 17.8436C242.667 17.5315 242.449 17.2646 242.168 17.0769C241.887 16.8891 241.557 16.7888 241.219 16.7886H241.218C240.766 16.7889 240.331 16.9688 240.011 17.2889C239.691 17.609 239.511 18.0431 239.51 18.4959ZM227.871 37.6788C226.483 37.6157 225.729 37.3845 225.228 37.1892C224.563 36.9306 224.089 36.6224 223.591 36.1247C223.092 35.6269 222.784 35.1532 222.526 34.4887C222.331 33.9877 222.1 33.2333 222.036 31.8457C221.967 30.3454 221.954 29.8948 221.954 26.094C221.954 22.2932 221.969 21.8438 222.036 20.3423C222.1 18.9547 222.333 18.2018 222.526 17.6993C222.785 17.0348 223.093 16.5607 223.591 16.0622C224.088 15.5637 224.562 15.2552 225.228 14.9976C225.729 14.8022 226.483 14.5711 227.871 14.508C229.371 14.439 229.822 14.4252 233.621 14.4252C237.42 14.4252 237.871 14.4402 239.372 14.508C240.76 14.5712 241.513 14.8041 242.015 14.9976C242.68 15.2552 243.154 15.5644 243.653 16.0622C244.151 16.56 244.458 17.0348 244.717 17.6993C244.913 18.2003 245.144 18.9547 245.207 20.3423C245.276 21.8438 245.29 22.2932 245.29 26.094C245.29 29.8948 245.276 30.3442 245.207 31.8457C245.144 33.2333 244.911 33.9875 244.717 34.4887C244.458 35.1532 244.15 35.6273 243.653 36.1247C243.155 36.622 242.68 36.9306 242.015 37.1892C241.514 37.3846 240.76 37.6158 239.372 37.6788C237.872 37.7478 237.422 37.7616 233.621 37.7616C229.82 37.7616 229.371 37.7478 227.871 37.6788ZM227.753 11.9475C226.238 12.0165 225.202 12.2568 224.298 12.6086C223.362 12.9719 222.569 13.4594 221.777 14.2502C220.985 15.0411 220.499 15.8351 220.135 16.7714C219.784 17.6762 219.543 18.7109 219.474 20.2261C219.404 21.7436 219.388 22.2288 219.388 26.0939C219.388 29.959 219.404 30.4442 219.474 31.9617C219.543 33.4769 219.784 34.5116 220.135 35.4163C220.499 36.3521 220.985 37.147 221.777 37.9375C222.569 38.7281 223.362 39.2148 224.298 39.5792C225.204 39.931 226.238 40.1713 227.753 40.2402C229.271 40.3092 229.756 40.3264 233.621 40.3264C237.486 40.3264 237.971 40.3104 239.489 40.2402C241.004 40.1713 242.038 39.931 242.943 39.5792C243.879 39.2148 244.672 38.7284 245.464 37.9375C246.257 37.1467 246.742 36.3521 247.106 35.4163C247.458 34.5116 247.699 33.4768 247.767 31.9617C247.836 30.443 247.852 29.959 247.852 26.0939C247.852 22.2288 247.836 21.7436 247.767 20.2261C247.698 18.7108 247.458 17.6756 247.106 16.7714C246.742 15.8356 246.255 15.0424 245.464 14.2502C244.674 13.4581 243.879 12.9719 242.944 12.6086C242.038 12.2568 241.004 12.0154 239.49 11.9475C237.972 11.8785 237.487 11.8613 233.622 11.8613C229.757 11.8613 229.271 11.8774 227.753 11.9475Z" fill="url(#paint1_radial_2002_127)"/>
</g>
</g>
<g clip-path="url(#clip4_2002_127)">
<circle cx="40.0271" cy="99.5" r="27.5" fill="#383838"/>
<g clip-path="url(#clip5_2002_127)">
<path fill-rule="evenodd" clip-rule="evenodd" d="M39.3877 84.791C30.8 84.791 24.1445 91.0751 24.1445 99.5624C24.1445 104.002 25.9663 107.838 28.9322 110.488C29.1806 110.712 29.3309 111.021 29.3431 111.355L29.426 114.064C29.4536 114.928 30.346 115.489 31.1374 115.142L34.1615 113.81C34.4173 113.696 34.7043 113.675 34.9742 113.748C36.3636 114.131 37.845 114.334 39.3877 114.334C47.9753 114.334 54.6308 108.049 54.6308 99.5623C54.6308 91.0751 47.9753 84.791 39.3877 84.791Z" fill="url(#paint2_linear_2002_127)"/>
<path fill-rule="evenodd" clip-rule="evenodd" d="M30.2357 103.883L34.7135 96.7866C35.4251 95.6591 36.9525 95.3772 38.0198 96.1769L41.5806 98.8456C41.7396 98.9645 41.933 99.0284 42.1316 99.0279C42.3302 99.0273 42.5232 98.9623 42.6817 98.8425L47.4908 95.1964C48.1318 94.7093 48.9722 95.4784 48.5397 96.1585L44.0649 103.252C43.3533 104.379 41.826 104.661 40.7587 103.861L37.1979 101.193C37.0388 101.074 36.8454 101.01 36.6468 101.01C36.4482 101.011 36.2552 101.076 36.0968 101.196L31.2846 104.845C30.6436 105.332 29.8032 104.563 30.2357 103.883Z" fill="white"/>
</g>
</g>
<g clip-path="url(#clip6_2002_127)">
<circle cx="209.527" cy="98" r="24" fill="#383838"/>
<g clip-path="url(#clip7_2002_127)">
<path d="M205.183 110.837C215.493 110.837 221.13 102.381 221.13 95.0481C221.13 94.808 221.126 94.5689 221.115 94.3309C222.212 93.545 223.158 92.5719 223.91 91.4573C222.906 91.8994 221.825 92.1969 220.692 92.331C221.849 91.6441 222.737 90.5572 223.156 89.2617C222.056 89.9079 220.853 90.3635 219.597 90.6087C218.575 89.5301 217.118 88.8555 215.506 88.8555C212.411 88.8555 209.901 91.3406 209.901 94.4039C209.901 94.8394 209.95 95.2629 210.046 95.6692C205.388 95.4372 201.257 93.229 198.493 89.8714C197.995 90.7182 197.733 91.6807 197.734 92.6605C197.734 94.5858 198.723 96.2853 200.228 97.2797C199.338 97.2528 198.468 97.0147 197.69 96.5856C197.689 96.6089 197.689 96.6316 197.689 96.6565C197.689 99.3439 199.621 101.588 202.186 102.096C201.704 102.226 201.207 102.292 200.708 102.291C200.347 102.291 199.996 102.256 199.654 102.191C200.368 104.396 202.437 106.001 204.89 106.046C202.972 107.534 200.555 108.421 197.929 108.421C197.482 108.421 197.036 108.396 196.592 108.344C199.072 109.918 202.018 110.837 205.184 110.837" fill="#1DA1F2"/>
</g>
</g>
<g clip-path="url(#clip8_2002_127)">
<circle cx="124.5" cy="57.2891" r="34.5" fill="#383838"/>
<path d="M124 36.7891C112.437 36.7891 103 46.2263 103 57.7891C103 69.3518 112.437 78.7891 124 78.7891C135.563 78.7891 145 69.3518 145 57.7891C145 46.2263 135.563 36.7891 124 36.7891ZM108.866 57.7891C108.866 53.453 110.737 49.4571 113.713 46.7364C114.903 45.6312 116.943 45.9713 117.794 47.4166L123.065 56.5138C123.575 57.364 123.575 58.3842 123.065 59.2344L117.794 68.3316C116.943 69.8619 114.903 70.117 113.628 68.9267C110.737 66.036 108.866 62.1251 108.866 57.7891ZM130.206 68.1615L124.935 59.0644C124.425 58.2142 124.425 57.1939 124.935 56.3437L130.206 47.2465C131.057 45.8012 133.012 45.4611 134.287 46.5664C137.263 49.287 139.134 53.283 139.134 57.619C139.134 61.9551 137.263 65.951 134.287 68.6717C133.012 70.032 131.057 69.6919 130.206 68.1615Z" fill="#00FF7F"/>
</g>
<defs>
<radialGradient id="paint0_radial_2002_127" cx="0" cy="0" r="1" gradientUnits="userSpaceOnUse" gradientTransform="translate(223.17 40.4609) scale(37.1588 37.1588)">
<stop offset="0.09" stop-color="#FA8F21"/>
<stop offset="0.78" stop-color="#D82D7E"/>
</radialGradient>
<radialGradient id="paint1_radial_2002_127" cx="0" cy="0" r="1" gradientUnits="userSpaceOnUse" gradientTransform="translate(236.651 41.7362) scale(29.2863)">
<stop offset="0.64" stop-color="#8C3AAA" stop-opacity="0"/>
<stop offset="1" stop-color="#8C3AAA"/>
</radialGradient>
<linearGradient id="paint2_linear_2002_127" x1="6121.4" y1="84.791" x2="6121.4" y2="12351.5" gradientUnits="userSpaceOnUse">
<stop stop-color="#00B2FF"/>
<stop offset="1" stop-color="#006AFF"/>
</linearGradient>
<clipPath id="clip0_2002_127">
<rect width="38" height="38" fill="white" transform="translate(0 9.78906)"/>
</clipPath>
<clipPath id="clip1_2002_127">
<rect width="18.8527" height="21.2093" fill="white" transform="translate(9.72095 19.5103)"/>
</clipPath>
<clipPath id="clip2_2002_127">
<rect width="51" height="51" fill="white" transform="translate(207.527)"/>
</clipPath>
<clipPath id="clip3_2002_127">
<rect width="28.4651" height="28.4651" fill="white" transform="translate(219.387 11.8613)"/>
</clipPath>
<clipPath id="clip4_2002_127">
<rect width="55" height="55" fill="white" transform="translate(12.5271 72)"/>
</clipPath>
<clipPath id="clip5_2002_127">
<rect width="30.6977" height="30.6977" fill="white" transform="translate(24.0388 84.791)"/>
</clipPath>
<clipPath id="clip6_2002_127">
<rect width="48" height="48" fill="white" transform="translate(185.527 74)"/>
</clipPath>
<clipPath id="clip7_2002_127">
<rect width="36.8372" height="24.5581" fill="white" transform="translate(191.108 86.2793)"/>
</clipPath>
<clipPath id="clip8_2002_127">
<rect width="69" height="69" fill="white" transform="translate(90 22.7891)"/>
</clipPath>
</defs>
</svg>
