<svg width="578" height="308" viewBox="0 0 578 308" fill="none" xmlns="http://www.w3.org/2000/svg">
<g filter="url(#filter0_d_1_1981)">
<rect x="33.9319" y="32" width="108.356" height="108.356" rx="54.178" fill="white"/>
<g clip-path="url(#clip0_1_1981)">
<path d="M81.153 61.4258C73.2118 62.0239 66.4608 62.574 66.1434 62.6384C65.2535 62.8 64.4439 63.4145 64.0632 64.2232L63.7297 64.9348L63.7619 81.8949L63.8091 98.8551L64.3173 99.9061C64.6036 100.488 66.5412 103.205 68.6536 106.001C72.8311 111.514 73.1324 111.822 74.7205 111.983C75.1815 112.031 78.6439 111.87 82.3925 111.644C86.1572 111.401 92.1919 111.029 95.814 110.82C111.284 109.864 110.489 109.944 111.378 109.168C112.49 108.231 112.411 109.766 112.458 89.1532C112.49 71.6757 112.474 70.5286 112.22 69.9948C111.918 69.3967 111.378 68.9765 104.326 63.9318C99.6088 60.569 99.2754 60.3911 97.162 60.3584C96.2891 60.3267 89.0781 60.8113 81.153 61.4258ZM99.0052 63.6404C99.6721 63.9471 104.549 67.4071 105.263 68.0706C105.454 68.2649 105.517 68.4264 105.422 68.5236C105.2 68.7178 75.0208 70.5449 74.1479 70.4151C73.7512 70.3506 73.1636 70.1083 72.8301 69.8814C71.448 68.9274 68.0178 66.0656 68.0178 65.856C68.0178 65.306 67.9063 65.306 81.3599 64.3203C83.9333 64.1424 88.1581 63.8193 90.7315 63.6087C96.3052 63.1558 97.9736 63.1721 99.0052 63.6404ZM108.599 72.4845C108.821 72.7104 109.012 73.147 109.075 73.5672C109.122 73.9558 109.154 81.1987 109.122 89.6378C109.075 104.124 109.059 105.03 108.789 105.45C108.63 105.708 108.312 105.983 108.073 106.064C107.407 106.339 75.7842 108.166 75.1333 107.972C74.832 107.891 74.4181 107.633 74.1961 107.407L73.8145 106.986L73.7672 91.3688C73.7351 80.4073 73.7672 75.5569 73.8948 75.1203C73.9902 74.7972 74.2283 74.4087 74.4352 74.2799C74.7215 74.0856 76.5958 73.9241 83.0444 73.5366C87.5715 73.2779 94.5755 72.8413 98.5943 72.599C108.154 71.9998 108.123 71.9998 108.599 72.4845Z" fill="#1D1D21"/>
<path d="M100.101 77.8349C98.3854 77.9484 96.8606 78.1099 96.6859 78.207C96.1615 78.4821 95.8441 78.935 95.7808 79.4524C95.7336 79.9861 95.8923 80.0505 97.6069 80.2611L98.3533 80.3582V87.2617C98.3533 91.3678 98.29 94.0844 98.2106 94.0036C98.1313 93.9065 95.8763 90.4149 93.1914 86.2434C90.5075 82.0565 88.2836 78.6119 88.2515 78.5802C88.2193 78.5475 86.4726 78.6446 84.3763 78.7908C81.8029 78.9687 80.3896 79.1303 80.1033 79.2918C79.6423 79.5341 79.134 80.3909 79.134 80.9574C79.134 81.2968 79.7377 81.4747 81.0083 81.4747H81.6753V101.328L80.5955 101.668C79.7538 101.926 79.4675 102.088 79.3249 102.411C79.0708 102.961 79.0868 103.462 79.341 103.462C79.4364 103.462 81.2313 103.349 83.2955 103.22C87.3776 102.978 87.8376 102.864 88.2665 102.007C88.3941 101.749 88.5046 101.474 88.5046 101.393C88.5046 101.328 87.9491 101.134 87.2812 100.973C86.5981 100.811 85.9151 100.649 85.7725 100.617C85.5023 100.536 85.4862 100.035 85.4862 93.0824V85.6289L90.3146 93.3411C95.3811 101.424 96.0169 102.347 96.7953 102.751C97.7646 103.268 100.227 102.912 101.465 102.088L101.847 101.846L101.879 90.8198L101.926 79.7775L102.768 79.6159C103.768 79.4217 104.229 78.9534 104.229 78.1447C104.229 77.6273 104.197 77.5946 103.721 77.6109C103.437 77.6242 101.801 77.7214 100.101 77.8349Z" fill="#1D1D21"/>
</g>
</g>
<g filter="url(#filter1_d_1_1981)">
<rect x="164.343" y="112.548" width="129.452" height="129.452" rx="64.7259" fill="white"/>
<g clip-path="url(#clip1_1_1981)">
<path d="M234.73 178.083L242.398 186.848L252.709 193.437L254.507 178.137L252.709 163.179L242.2 168.968L234.73 178.083Z" fill="#00832D"/>
<path d="M190.233 192.017V205.052C190.233 208.032 192.647 210.445 195.627 210.445H208.661L211.358 200.593L208.661 192.017L199.717 189.32L190.233 192.017Z" fill="#0066DA"/>
<path d="M208.661 145.723L190.233 164.151L199.717 166.848L208.661 164.151L211.313 155.692L208.661 145.723Z" fill="#E94235"/>
<path d="M208.661 164.149H190.233V192.016H208.661V164.149Z" fill="#2684FC"/>
<path d="M264.485 153.525L252.709 163.179V193.437L264.539 203.137C266.31 204.521 268.899 203.258 268.899 201.006V155.61C268.899 153.332 266.251 152.082 264.485 153.525ZM234.73 178.084V192.017H208.661V210.445H247.315C250.295 210.445 252.709 208.032 252.709 205.052V193.437L234.73 178.084Z" fill="#00AC47"/>
<path d="M247.315 145.722H208.661V164.15H234.73V178.083L252.709 163.188V151.115C252.709 148.135 250.295 145.722 247.315 145.722Z" fill="#FFBA00"/>
</g>
</g>
<g filter="url(#filter2_d_1_1981)">
<rect x="337.904" y="52.1372" width="76.7122" height="76.7122" rx="38.3561" fill="white"/>
<g clip-path="url(#clip2_1_1981)">
<path d="M363.167 79.2239H366.769C366.868 79.2237 366.962 79.1844 367.032 79.1147C367.102 79.045 367.141 78.9504 367.142 78.8518C367.142 78.8504 367.098 75.7645 367.098 74.9072V74.8968C367.098 74.1925 367.245 73.5782 367.504 73.0628L367.626 72.832C367.611 72.835 367.596 72.8428 367.585 72.8544L360.591 79.7906C360.578 79.8012 360.569 79.8155 360.564 79.8316C360.709 79.76 360.907 79.6617 360.935 79.6495C361.543 79.3743 362.282 79.2239 363.167 79.2239Z" fill="#74BB44"/>
<path d="M391.178 78.468C390.892 76.9377 389.981 76.1832 389.158 75.8865C388.271 75.5656 386.471 75.2331 384.21 74.9669C382.39 74.7523 380.251 74.7698 378.959 74.8092C378.804 73.7472 378.059 72.777 377.226 72.4412C375.006 71.548 371.574 71.7638 370.694 72.0104C369.993 72.2064 369.219 72.6071 368.788 73.2247C368.499 73.6379 368.311 74.1664 368.31 74.9052C368.31 75.3232 368.321 76.3078 368.332 77.1832C368.342 78.0605 368.355 78.8458 368.355 78.8515C368.354 79.2275 368.204 79.588 367.938 79.8539C367.672 80.1198 367.312 80.2693 366.936 80.2697H363.335C362.568 80.2697 361.981 80.3985 361.532 80.6021C361.083 80.806 360.765 81.0807 360.524 81.4058C360.043 82.0509 359.96 82.8475 359.962 83.6609C359.962 83.6609 359.969 84.3249 360.129 85.6109C360.262 86.6055 361.341 93.5555 362.366 95.6693C362.763 96.4911 363.028 96.8346 363.808 97.1971C365.548 97.9419 369.52 98.7705 371.383 99.0078C373.241 99.2457 374.408 99.7452 375.103 98.2876C375.105 98.2831 375.242 97.9257 375.43 97.3973C376.034 95.569 376.118 93.946 376.118 92.7722C376.118 92.6524 376.294 92.6473 376.294 92.7722C376.294 93.6014 376.135 96.5353 378.351 97.3217C379.227 97.6315 381.041 97.9084 382.886 98.1248C384.553 98.3171 385.763 98.9724 385.763 103.251C385.763 105.854 385.216 106.21 382.359 106.21C380.042 106.21 379.159 106.27 379.159 104.431C379.159 102.942 380.63 103.099 381.72 103.099C382.208 103.099 381.854 102.737 381.854 101.818C381.854 100.905 382.426 100.377 381.885 100.364C378.115 100.26 375.896 100.359 375.896 105.075C375.896 109.356 377.534 110.151 382.886 110.151C387.081 110.151 388.559 110.014 390.292 104.638C390.635 103.577 391.465 100.339 391.966 94.9012C392.283 91.4639 391.666 81.0867 391.178 78.468ZM383.864 89.9372C383.345 89.9194 382.847 89.9519 382.382 90.0267C382.513 88.9704 382.949 87.6728 384.494 87.7272C386.205 87.7864 386.444 89.4031 386.45 90.4976C385.729 90.1765 384.836 89.9715 383.864 89.9372Z" fill="#74BB44"/>
</g>
</g>
<g filter="url(#filter3_d_1_1981)">
<rect x="452.013" y="124.055" width="92.0547" height="92.0547" rx="46.0273" fill="white"/>
<g clip-path="url(#clip3_1_1981)">
<path d="M499.754 162.987C503.462 162.987 506.467 159.981 506.467 156.274C506.467 152.566 503.462 149.561 499.754 149.561C496.047 149.561 493.042 152.566 493.042 156.274C493.042 159.981 496.047 162.987 499.754 162.987Z" fill="#7B83EB"/>
<path opacity="0.1" d="M499.275 157.712H493.196L493.226 157.846L493.229 157.857L493.26 157.981C493.702 159.656 494.774 161.096 496.252 162C497.73 162.904 499.5 163.201 501.193 162.831V159.629C501.191 159.121 500.989 158.634 500.63 158.275C500.27 157.916 499.784 157.713 499.275 157.712Z" fill="black"/>
<path opacity="0.2" d="M497.837 159.15H493.689C494.233 160.298 495.092 161.268 496.166 161.947C497.24 162.626 498.484 162.986 499.755 162.986V161.067C499.753 160.559 499.55 160.072 499.191 159.713C498.832 159.354 498.345 159.151 497.837 159.15Z" fill="black"/>
<path d="M514.857 163.465C517.638 163.465 519.891 161.212 519.891 158.431C519.891 155.651 517.638 153.397 514.857 153.397C512.077 153.397 509.823 155.651 509.823 158.431C509.823 161.212 512.077 163.465 514.857 163.465Z" fill="#5059C9"/>
<path d="M519.172 164.903H507.865C507.621 164.903 507.387 165 507.214 165.173C507.042 165.346 506.945 165.58 506.945 165.824V177.489C506.914 179.177 507.464 180.825 508.502 182.156C509.541 183.487 511.006 184.421 512.651 184.802C513.699 185.021 514.782 185.005 515.823 184.753C516.864 184.501 517.835 184.02 518.666 183.346C519.498 182.671 520.168 181.82 520.629 180.853C521.09 179.887 521.329 178.83 521.33 177.759V167.061C521.33 166.489 521.103 165.94 520.698 165.535C520.293 165.131 519.745 164.903 519.172 164.903Z" fill="#5059C9"/>
<path d="M511.261 167.061V180.725C511.263 183.258 510.428 185.719 508.887 187.729C507.346 189.739 505.185 191.183 502.739 191.839C500.294 192.495 497.7 192.325 495.36 191.356C493.021 190.386 491.067 188.672 489.801 186.479C489.524 186.019 489.284 185.538 489.082 185.04C488.894 184.571 488.735 184.091 488.607 183.602C488.37 182.661 488.249 181.695 488.248 180.725V167.061C488.247 166.777 488.303 166.497 488.411 166.235C488.519 165.973 488.678 165.735 488.879 165.534C489.079 165.334 489.317 165.175 489.579 165.067C489.841 164.958 490.122 164.903 490.405 164.903H509.104C509.387 164.903 509.668 164.958 509.93 165.067C510.192 165.175 510.43 165.334 510.63 165.534C510.831 165.735 510.989 165.973 511.098 166.235C511.206 166.497 511.262 166.777 511.261 167.061Z" fill="#7B83EB"/>
<path opacity="0.2" d="M497.837 159.15H493.689C494.233 160.298 495.092 161.268 496.166 161.947C497.24 162.626 498.484 162.986 499.755 162.986V161.067C499.753 160.559 499.55 160.072 499.191 159.713C498.832 159.354 498.345 159.151 497.837 159.15Z" fill="black"/>
<path opacity="0.1" d="M501.193 164.903V183.127C501.193 183.561 501.044 183.981 500.772 184.319C500.5 184.657 500.121 184.891 499.697 184.983C499.562 185.023 499.421 185.042 499.28 185.04H489.082C488.894 184.571 488.735 184.091 488.607 183.602C488.37 182.661 488.249 181.695 488.248 180.725V167.061C488.247 166.777 488.303 166.497 488.411 166.235C488.519 165.973 488.678 165.735 488.879 165.534C489.079 165.334 489.317 165.175 489.579 165.067C489.841 164.958 490.122 164.903 490.405 164.903H501.193Z" fill="black"/>
<path opacity="0.2" d="M499.754 164.903V184.566C499.756 184.707 499.737 184.847 499.697 184.983C499.605 185.406 499.371 185.786 499.033 186.058C498.696 186.33 498.275 186.479 497.841 186.479H489.801C489.524 186.019 489.284 185.538 489.082 185.04C488.894 184.571 488.735 184.091 488.607 183.602C488.37 182.661 488.249 181.695 488.248 180.725V167.061C488.247 166.777 488.303 166.497 488.411 166.235C488.519 165.973 488.678 165.735 488.879 165.534C489.079 165.334 489.317 165.175 489.579 165.067C489.841 164.958 490.122 164.903 490.405 164.903H499.754Z" fill="black"/>
<path opacity="0.2" d="M499.754 164.903V181.689C499.752 182.196 499.55 182.681 499.192 183.039C498.833 183.397 498.348 183.6 497.841 183.602H488.607C488.37 182.661 488.249 181.695 488.248 180.725V167.061C488.247 166.777 488.303 166.497 488.411 166.235C488.519 165.973 488.678 165.735 488.879 165.534C489.079 165.334 489.317 165.175 489.579 165.067C489.841 164.958 490.122 164.903 490.405 164.903H499.754Z" fill="black"/>
<path opacity="0.2" d="M490.405 164.903C490.122 164.903 489.841 164.958 489.579 165.067C489.317 165.175 489.079 165.334 488.879 165.534C488.678 165.735 488.519 165.973 488.411 166.235C488.303 166.497 488.247 166.777 488.248 167.061V180.725C488.249 181.695 488.37 182.661 488.607 183.602H496.403C496.91 183.6 497.395 183.397 497.753 183.039C498.111 182.681 498.314 182.196 498.316 181.689V164.903H490.405Z" fill="black"/>
<path d="M477.22 159.15H496.399C496.907 159.15 497.395 159.352 497.755 159.711C498.114 160.071 498.316 160.559 498.316 161.067V180.246C498.316 180.755 498.114 181.242 497.755 181.602C497.395 181.962 496.907 182.164 496.399 182.164H477.22C476.711 182.164 476.224 181.962 475.864 181.602C475.504 181.242 475.302 180.755 475.302 180.246V161.067C475.302 160.559 475.504 160.071 475.864 159.711C476.224 159.352 476.711 159.15 477.22 159.15Z" fill="#4B53BC"/>
<path d="M492.534 166.306H488.233V177.842H485.411V166.306H481.084V163.473H492.534V166.306Z" fill="white"/>
</g>
</g>
<defs>
<filter id="filter0_d_1_1981" x="-8.25984" y="-10.1917" width="215.753" height="215.753" filterUnits="userSpaceOnUse" color-interpolation-filters="sRGB">
<feFlood flood-opacity="0" result="BackgroundImageFix"/>
<feColorMatrix in="SourceAlpha" type="matrix" values="0 0 0 0 0 0 0 0 0 0 0 0 0 0 0 0 0 0 127 0" result="hardAlpha"/>
<feOffset dx="11.5068" dy="11.5068"/>
<feGaussianBlur stdDeviation="26.8493"/>
<feComposite in2="hardAlpha" operator="out"/>
<feColorMatrix type="matrix" values="0 0 0 0 0 0 0 0 0 0 0 0 0 0 0 0 0 0 0.15 0"/>
<feBlend mode="normal" in2="BackgroundImageFix" result="effect1_dropShadow_1_1981"/>
<feBlend mode="normal" in="SourceGraphic" in2="effect1_dropShadow_1_1981" result="shape"/>
</filter>
<filter id="filter1_d_1_1981" x="122.151" y="70.3566" width="236.849" height="236.849" filterUnits="userSpaceOnUse" color-interpolation-filters="sRGB">
<feFlood flood-opacity="0" result="BackgroundImageFix"/>
<feColorMatrix in="SourceAlpha" type="matrix" values="0 0 0 0 0 0 0 0 0 0 0 0 0 0 0 0 0 0 127 0" result="hardAlpha"/>
<feOffset dx="11.5068" dy="11.5068"/>
<feGaussianBlur stdDeviation="26.8493"/>
<feComposite in2="hardAlpha" operator="out"/>
<feColorMatrix type="matrix" values="0 0 0 0 0 0 0 0 0 0 0 0 0 0 0 0 0 0 0.15 0"/>
<feBlend mode="normal" in2="BackgroundImageFix" result="effect1_dropShadow_1_1981"/>
<feBlend mode="normal" in="SourceGraphic" in2="effect1_dropShadow_1_1981" result="shape"/>
</filter>
<filter id="filter2_d_1_1981" x="295.712" y="9.94548" width="184.109" height="184.11" filterUnits="userSpaceOnUse" color-interpolation-filters="sRGB">
<feFlood flood-opacity="0" result="BackgroundImageFix"/>
<feColorMatrix in="SourceAlpha" type="matrix" values="0 0 0 0 0 0 0 0 0 0 0 0 0 0 0 0 0 0 127 0" result="hardAlpha"/>
<feOffset dx="11.5068" dy="11.5068"/>
<feGaussianBlur stdDeviation="26.8493"/>
<feComposite in2="hardAlpha" operator="out"/>
<feColorMatrix type="matrix" values="0 0 0 0 0 0 0 0 0 0 0 0 0 0 0 0 0 0 0.15 0"/>
<feBlend mode="normal" in2="BackgroundImageFix" result="effect1_dropShadow_1_1981"/>
<feBlend mode="normal" in="SourceGraphic" in2="effect1_dropShadow_1_1981" result="shape"/>
</filter>
<filter id="filter3_d_1_1981" x="409.822" y="81.863" width="199.452" height="199.452" filterUnits="userSpaceOnUse" color-interpolation-filters="sRGB">
<feFlood flood-opacity="0" result="BackgroundImageFix"/>
<feColorMatrix in="SourceAlpha" type="matrix" values="0 0 0 0 0 0 0 0 0 0 0 0 0 0 0 0 0 0 127 0" result="hardAlpha"/>
<feOffset dx="11.5068" dy="11.5068"/>
<feGaussianBlur stdDeviation="26.8493"/>
<feComposite in2="hardAlpha" operator="out"/>
<feColorMatrix type="matrix" values="0 0 0 0 0 0 0 0 0 0 0 0 0 0 0 0 0 0 0.15 0"/>
<feBlend mode="normal" in2="BackgroundImageFix" result="effect1_dropShadow_1_1981"/>
<feBlend mode="normal" in="SourceGraphic" in2="effect1_dropShadow_1_1981" result="shape"/>
</filter>
<clipPath id="clip0_1_1981">
<rect width="48.7602" height="52.8236" fill="white" transform="translate(63.7297 59.7671)"/>
</clipPath>
<clipPath id="clip1_1_1981">
<rect width="78.6655" height="64.7259" fill="white" transform="translate(190.233 145.72)"/>
</clipPath>
<clipPath id="clip2_1_1981">
<rect width="32.0964" height="38.3561" fill="white" transform="translate(359.959 71.7944)"/>
</clipPath>
<clipPath id="clip3_1_1981">
<rect width="46.8138" height="46.0273" fill="white" transform="translate(475.027 147.644)"/>
</clipPath>
</defs>
</svg>
