<svg width="222" height="232" viewBox="0 0 222 232" fill="none" xmlns="http://www.w3.org/2000/svg">
<path d="M43.156 52.6836C60.5121 35.2788 84.4899 24.3232 110.974 24.3232V41.5859C89.1825 41.5859 69.4535 50.4194 55.1726 64.7002L43.156 52.6836Z" fill="white"/>
<path d="M43.158 52.6816C25.7532 70.0378 14.7976 94.0155 14.7976 120.5H32.0603C32.0603 98.7082 40.8938 78.9791 55.1746 64.6982L43.158 52.6816Z" fill="white"/>
<path d="M43.158 188.318C25.7532 170.962 14.7976 146.985 14.7976 120.5H32.0603C32.0603 142.292 40.8938 162.021 55.1746 176.302L43.158 188.318Z" fill="white"/>
<path d="M43.156 188.32C60.5121 205.725 84.4899 216.681 110.974 216.681V199.418C89.1825 199.418 69.4535 190.585 55.1726 176.304L43.156 188.32Z" fill="white"/>
<path d="M178.797 188.32C161.44 205.725 137.463 216.681 110.978 216.681V199.418C132.77 199.418 152.499 190.585 166.78 176.304L178.797 188.32Z" fill="white"/>
<path d="M178.795 188.318C196.199 170.962 207.155 146.985 207.155 120.5H189.892C189.892 142.292 181.059 162.021 166.778 176.302L178.795 188.318Z" fill="white"/>
<path d="M178.795 52.6816C196.199 70.0378 207.155 94.0155 207.155 120.5H189.892C189.892 98.7082 181.059 78.9791 166.778 64.6982L178.795 52.6816Z" fill="white"/>
<path d="M178.797 52.6836C161.44 35.2788 137.463 24.3232 110.978 24.3232V41.5859C132.77 41.5859 152.499 50.4194 166.78 64.7002L178.797 52.6836Z" fill="#87B8AF"/>
</svg>
