<svg width="1236" height="138" viewBox="0 0 1236 138" fill="none" xmlns="http://www.w3.org/2000/svg">
<path d="M189.398 6.46586L157.338 136.707H112.675L94.6992 56.8996L76.3524 136.707H31.6899L0 6.46586H39.2881L54.4844 95.51L75.0551 6.46586H114.899L134.914 94.7711L150.11 6.46586H189.398Z" fill="url(#paint0_linear_1_2011)"/>
<path d="M304.144 83.6867C304.144 86.5194 303.959 89.3521 303.588 92.1847H234.834C235.204 97.8501 236.749 102.099 239.467 104.932C242.308 107.641 245.891 108.996 250.216 108.996C256.269 108.996 260.594 106.286 263.188 100.867H301.92C300.314 108.011 297.164 114.415 292.469 120.08C287.897 125.622 282.091 129.995 275.049 133.197C268.006 136.399 260.223 138 251.698 138C241.444 138 232.301 135.845 224.271 131.534C216.364 127.224 210.124 121.066 205.553 113.06C201.105 105.055 198.882 95.6332 198.882 84.7952C198.882 73.9572 201.105 64.597 205.553 56.7149C210.001 48.7095 216.178 42.5515 224.085 38.241C232.116 33.9304 241.32 31.7751 251.698 31.7751C261.953 31.7751 271.033 33.8688 278.94 38.0562C286.847 42.2436 293.025 48.2784 297.472 56.1606C301.92 63.9197 304.144 73.095 304.144 83.6867ZM267.08 74.6345C267.08 70.2008 265.597 66.7523 262.632 64.2891C259.667 61.7028 255.96 60.4096 251.513 60.4096C247.065 60.4096 243.42 61.6412 240.579 64.1044C237.737 66.4444 235.884 69.9545 235.019 74.6345H267.08Z" fill="url(#paint1_linear_1_2011)"/>
<path d="M355.332 47.4779C358.173 42.5515 362.189 38.7336 367.378 36.0241C372.567 33.1914 378.682 31.7751 385.724 31.7751C394.002 31.7751 401.477 33.9304 408.148 38.241C414.943 42.5515 420.256 48.7095 424.086 56.7149C428.039 64.7202 430.016 74.0803 430.016 84.7952C430.016 95.51 428.039 104.932 424.086 113.06C420.256 121.066 414.943 127.224 408.148 131.534C401.477 135.845 394.002 138 385.724 138C378.682 138 372.567 136.645 367.378 133.936C362.189 131.103 358.173 127.224 355.332 122.297V136.707H319.009V0H355.332V47.4779ZM393.137 84.7952C393.137 78.0214 391.284 72.7871 387.578 69.0924C383.995 65.2744 379.547 63.3655 374.235 63.3655C368.922 63.3655 364.412 65.2744 360.706 69.0924C357.123 72.9103 355.332 78.1446 355.332 84.7952C355.332 91.5689 357.123 96.8648 360.706 100.683C364.412 104.501 368.922 106.41 374.235 106.41C379.547 106.41 383.995 104.501 387.578 100.683C391.284 96.7416 393.137 91.4458 393.137 84.7952Z" fill="url(#paint2_linear_1_2011)"/>
<path d="M544.302 83.6867C544.302 86.5194 544.116 89.3521 543.746 92.1847H474.991C475.362 97.8501 476.906 102.099 479.624 104.932C482.466 107.641 486.049 108.996 490.373 108.996C496.427 108.996 500.751 106.286 503.345 100.867H542.078C540.472 108.011 537.321 114.415 532.626 120.08C528.055 125.622 522.248 129.995 515.206 133.197C508.164 136.399 500.38 138 491.856 138C481.601 138 472.459 135.845 464.428 131.534C456.521 127.224 450.282 121.066 445.711 113.06C441.263 105.055 439.039 95.6332 439.039 84.7952C439.039 73.9572 441.263 64.597 445.711 56.7149C450.158 48.7095 456.336 42.5515 464.243 38.241C472.273 33.9304 481.478 31.7751 491.856 31.7751C502.11 31.7751 511.191 33.8688 519.098 38.0562C527.005 42.2436 533.182 48.2784 537.63 56.1606C542.078 63.9197 544.302 73.095 544.302 83.6867ZM507.237 74.6345C507.237 70.2008 505.755 66.7523 502.79 64.2891C499.824 61.7028 496.118 60.4096 491.67 60.4096C487.223 60.4096 483.578 61.6412 480.736 64.1044C477.895 66.4444 476.042 69.9545 475.177 74.6345H507.237Z" fill="url(#paint3_linear_1_2011)"/>
<path d="M595.489 51.3574C599.566 45.4458 604.508 40.7657 610.315 37.3173C616.122 33.8688 622.361 32.1446 629.032 32.1446V70.755H618.84C610.933 70.755 605.064 72.2945 601.234 75.3735C597.404 78.4525 595.489 83.8099 595.489 91.4458V136.707H559.166V33.0683H595.489V51.3574Z" fill="url(#paint4_linear_1_2011)"/>
<path d="M777.895 32.1446C790.991 32.1446 801.245 36.0857 808.658 43.9679C816.194 51.8501 819.962 62.6265 819.962 76.2972V136.707H783.64V81.1004C783.64 75.5582 782.095 71.2477 779.007 68.1687C775.918 65.0897 771.717 63.5502 766.405 63.5502C761.092 63.5502 756.891 65.0897 753.803 68.1687C750.714 71.2477 749.17 75.5582 749.17 81.1004V136.707H712.847V81.1004C712.847 75.5582 711.302 71.2477 708.214 68.1687C705.249 65.0897 701.11 63.5502 695.797 63.5502C690.361 63.5502 686.099 65.0897 683.01 68.1687C679.921 71.2477 678.377 75.5582 678.377 81.1004V136.707H642.054V33.0683H678.377V46.739C681.589 42.3052 685.728 38.7952 690.794 36.2088C695.983 33.4993 701.913 32.1446 708.584 32.1446C716.244 32.1446 723.039 33.8072 728.97 37.1325C735.024 40.4578 739.78 45.1379 743.24 51.1727C746.946 45.5074 751.826 40.9505 757.88 37.502C763.934 33.9304 770.605 32.1446 777.895 32.1446Z" fill="url(#paint5_linear_1_2011)"/>
<path d="M939.195 83.6867C939.195 86.5194 939.01 89.3521 938.639 92.1847H869.885C870.255 97.8501 871.8 102.099 874.518 104.932C877.359 107.641 880.942 108.996 885.267 108.996C891.32 108.996 895.645 106.286 898.239 100.867H936.971C935.365 108.011 932.215 114.415 927.52 120.08C922.948 125.622 917.142 129.995 910.1 133.197C903.057 136.399 895.274 138 886.749 138C876.495 138 867.352 135.845 859.322 131.534C851.414 127.224 845.175 121.066 840.604 113.06C836.156 105.055 833.932 95.6332 833.932 84.7952C833.932 73.9572 836.156 64.597 840.604 56.7149C845.052 48.7095 851.229 42.5515 859.136 38.241C867.167 33.9304 876.371 31.7751 886.749 31.7751C897.004 31.7751 906.084 33.8688 913.991 38.0562C921.898 42.2436 928.076 48.2784 932.523 56.1606C936.971 63.9197 939.195 73.095 939.195 83.6867ZM902.131 74.6345C902.131 70.2008 900.648 66.7523 897.683 64.2891C894.718 61.7028 891.011 60.4096 886.564 60.4096C882.116 60.4096 878.471 61.6412 875.63 64.1044C872.788 66.4444 870.935 69.9545 870.07 74.6345H902.131Z" fill="url(#paint6_linear_1_2011)"/>
<path d="M990.383 0V136.707H954.06V0H990.383Z" fill="url(#paint7_linear_1_2011)"/>
<path d="M1059.44 138C1049.06 138 1039.73 135.845 1031.45 131.534C1023.3 127.224 1016.87 121.066 1012.18 113.06C1007.48 105.055 1005.14 95.6332 1005.14 84.7952C1005.14 74.0803 1007.48 64.7202 1012.18 56.7149C1017 48.7095 1023.48 42.5515 1031.64 38.241C1039.92 33.9304 1049.24 31.7751 1059.62 31.7751C1070 31.7751 1079.27 33.9304 1087.42 38.241C1095.7 42.5515 1102.18 48.7095 1106.88 56.7149C1111.7 64.7202 1114.11 74.0803 1114.11 84.7952C1114.11 95.51 1111.7 104.932 1106.88 113.06C1102.18 121.066 1095.7 127.224 1087.42 131.534C1079.14 135.845 1069.81 138 1059.44 138ZM1059.44 106.594C1064.5 106.594 1068.7 104.747 1072.04 101.052C1075.5 97.2343 1077.23 91.8153 1077.23 84.7952C1077.23 77.7751 1075.5 72.4177 1072.04 68.7229C1068.7 65.0281 1064.56 63.1807 1059.62 63.1807C1054.68 63.1807 1050.54 65.0281 1047.21 68.7229C1043.87 72.4177 1042.2 77.7751 1042.2 84.7952C1042.2 91.9384 1043.81 97.3574 1047.02 101.052C1050.23 104.747 1054.37 106.594 1059.44 106.594Z" fill="url(#paint8_linear_1_2011)"/>
<path d="M1196.9 32.1446C1208.88 32.1446 1218.39 36.1472 1225.44 44.1526C1232.48 52.0348 1236 62.7497 1236 76.2972V136.707H1199.68V81.1004C1199.68 75.1888 1198.13 70.5703 1195.04 67.245C1191.96 63.7965 1187.82 62.0723 1182.63 62.0723C1177.19 62.0723 1172.93 63.7965 1169.84 67.245C1166.75 70.5703 1165.21 75.1888 1165.21 81.1004V136.707H1128.88V33.0683H1165.21V47.8474C1168.42 43.1673 1172.74 39.411 1178.18 36.5783C1183.62 33.6225 1189.85 32.1446 1196.9 32.1446Z" fill="url(#paint9_linear_1_2011)"/>
<defs>
<linearGradient id="paint0_linear_1_2011" x1="618" y1="-4.11272e-06" x2="618" y2="168" gradientUnits="userSpaceOnUse">
<stop offset="0.121261" stop-color="white"/>
<stop offset="1" stop-color="#011F11" stop-opacity="0"/>
</linearGradient>
<linearGradient id="paint1_linear_1_2011" x1="618" y1="-4.11272e-06" x2="618" y2="168" gradientUnits="userSpaceOnUse">
<stop offset="0.121261" stop-color="white"/>
<stop offset="1" stop-color="#011F11" stop-opacity="0"/>
</linearGradient>
<linearGradient id="paint2_linear_1_2011" x1="618" y1="-4.11272e-06" x2="618" y2="168" gradientUnits="userSpaceOnUse">
<stop offset="0.121261" stop-color="white"/>
<stop offset="1" stop-color="#011F11" stop-opacity="0"/>
</linearGradient>
<linearGradient id="paint3_linear_1_2011" x1="618" y1="-4.11272e-06" x2="618" y2="168" gradientUnits="userSpaceOnUse">
<stop offset="0.121261" stop-color="white"/>
<stop offset="1" stop-color="#011F11" stop-opacity="0"/>
</linearGradient>
<linearGradient id="paint4_linear_1_2011" x1="618" y1="-4.11272e-06" x2="618" y2="168" gradientUnits="userSpaceOnUse">
<stop offset="0.121261" stop-color="white"/>
<stop offset="1" stop-color="#011F11" stop-opacity="0"/>
</linearGradient>
<linearGradient id="paint5_linear_1_2011" x1="618" y1="-4.11272e-06" x2="618" y2="168" gradientUnits="userSpaceOnUse">
<stop offset="0.121261" stop-color="white"/>
<stop offset="1" stop-color="#011F11" stop-opacity="0"/>
</linearGradient>
<linearGradient id="paint6_linear_1_2011" x1="618" y1="-4.11272e-06" x2="618" y2="168" gradientUnits="userSpaceOnUse">
<stop offset="0.121261" stop-color="white"/>
<stop offset="1" stop-color="#011F11" stop-opacity="0"/>
</linearGradient>
<linearGradient id="paint7_linear_1_2011" x1="618" y1="-4.11272e-06" x2="618" y2="168" gradientUnits="userSpaceOnUse">
<stop offset="0.121261" stop-color="white"/>
<stop offset="1" stop-color="#011F11" stop-opacity="0"/>
</linearGradient>
<linearGradient id="paint8_linear_1_2011" x1="618" y1="-4.11272e-06" x2="618" y2="168" gradientUnits="userSpaceOnUse">
<stop offset="0.121261" stop-color="white"/>
<stop offset="1" stop-color="#011F11" stop-opacity="0"/>
</linearGradient>
<linearGradient id="paint9_linear_1_2011" x1="618" y1="-4.11272e-06" x2="618" y2="168" gradientUnits="userSpaceOnUse">
<stop offset="0.121261" stop-color="white"/>
<stop offset="1" stop-color="#011F11" stop-opacity="0"/>
</linearGradient>
</defs>
</svg>
